<svg width="585" height="246" viewBox="0 0 585 246" fill="none" xmlns="http://www.w3.org/2000/svg">
<path d="M0 0.826406C0 1.72641 11 12.5264 37.5 37.5264C47.4 46.8264 60.9 59.7264 67.5 66.0264C86.2 84.0264 113.9 110.226 120.8 116.526C124.2 119.726 127 122.826 127 123.526C127 124.526 113.8 137.526 91.5 158.326C83.8 165.626 54.4 193.626 44.5 203.126C38.5 208.926 26.2 220.626 17.2 229.126L0.9 244.526L57.5 244.826C101.4 245.026 114.6 244.726 116.5 243.826C118.6 242.626 152.1 211.426 179.5 185.126C185 179.826 201.6 164.026 216.3 150.126C231 136.126 243 124.226 242.8 123.526C242.6 122.826 236.7 116.726 229.5 109.926C222.4 103.226 207.9 89.5264 197.5 79.6264C187 69.6264 171 54.5264 162 45.9264C152.9 37.3264 139 24.1264 131 16.6264C123 9.02641 115.1 2.22641 113.3 1.42641C110.7 0.326406 99.9 0.0264062 55 0.0264062C24.8 0.0264062 0 0.426406 0 0.826406Z" fill="#9BA2A6"/>
<path d="M168.1 0.726364C168.2 1.22636 177 9.82636 187.8 20.0264C208.8 39.6264 236.7 66.0264 254 82.6264C263.6 91.8264 268.7 96.6264 289.8 116.726L297.2 123.626L278.4 141.626C268.1 151.426 257.6 161.526 255 164.026C252.4 166.526 246.3 172.326 241.4 176.926C229.2 188.526 217.9 199.326 194.6 221.526C183.7 231.926 173.9 241.126 172.9 241.826C171.8 242.526 171 243.526 171 244.126C171 244.626 192.7 245.026 227.3 245.026C280.3 245.026 283.7 244.926 286.5 243.126C289.4 241.426 303.8 228.026 350.5 183.626C370.6 164.526 381.2 154.426 400.1 136.526C406.5 130.426 411.8 124.826 411.9 123.926C411.9 123.126 409 119.526 405.3 116.126C401.5 112.626 394.5 105.826 389.5 101.126C384.6 96.3264 371.1 83.5264 359.5 72.5264C348 61.6264 333.5 47.9264 327.5 42.1264C302.2 17.8264 285.7 2.42636 283.6 1.32636C282 0.426364 267.4 0.126364 224.8 0.0263635C193.5 0.0263635 168 0.326364 168.1 0.726364Z" fill="#9BA2A6"/>
<path d="M341 0.926308C341 1.32631 343.4 3.82631 346.3 6.52631C349.1 9.12631 355.8 15.4263 361 20.4263C366.2 25.5263 388.3 46.4263 410 67.0263C431.7 87.6263 454 108.826 459.5 114.226L469.5 124.026L464 129.226C457.3 135.526 426 165.226 413.5 177.126C408.6 181.826 395.6 194.126 384.6 204.526C373.7 214.926 363.8 224.326 362.6 225.426C352.3 235.126 343 244.326 343 244.626C343 244.926 368.8 244.926 400.3 244.826L457.6 244.526L460.5 242.226C462.2 240.926 467.1 236.426 471.5 232.226C480.5 223.526 498.9 205.926 512.5 193.126C530.2 176.326 539.8 167.226 559.6 148.226C570.7 137.626 581 128.026 582.4 126.926C583.8 125.826 585 124.526 585 124.026C585 123.626 573 111.826 558.3 97.9263C543.5 84.0263 527.7 68.9263 523 64.4263C518.3 59.8263 513.2 54.9263 511.5 53.4263C509.9 51.9263 500.9 43.4263 491.5 34.5263C482.2 25.6263 471 15.0263 466.7 10.9263C454.1 -1.07369 460.9 0.0263085 396.8 0.0263085C366.1 0.0263085 341 0.426309 341 0.926308Z" fill="#9BA2A6"/>
</svg>
