<?xml version="1.0" encoding="UTF-8" standalone="no"?>
<!-- Created with Inkscape (http://www.inkscape.org/) -->

<svg
   width="216.20705mm"
   height="113.7229mm"
   viewBox="0 0 216.20705 113.7229"
   version="1.1"
   id="svg1"
   xml:space="preserve"
   xmlns:inkscape="http://www.inkscape.org/namespaces/inkscape"
   xmlns:sodipodi="http://sodipodi.sourceforge.net/DTD/sodipodi-0.dtd"
   xmlns="http://www.w3.org/2000/svg"
   xmlns:svg="http://www.w3.org/2000/svg"><sodipodi:namedview
     id="namedview1"
     pagecolor="#ffffff"
     bordercolor="#000000"
     borderopacity="0.25"
     inkscape:showpageshadow="2"
     inkscape:pageopacity="0.0"
     inkscape:pagecheckerboard="0"
     inkscape:deskcolor="#d1d1d1"
     inkscape:document-units="mm"><inkscape:page
       x="1.4379404e-14"
       y="0"
       width="216.20703"
       height="113.7229"
       id="page2"
       margin="0"
       bleed="0" /></sodipodi:namedview><defs
     id="defs1" /><g
     inkscape:label="Layer 1"
     inkscape:groupmode="layer"
     id="layer1"
     transform="translate(8.8971247,-95.8586)"><path
       style="fill:#6b6b6b;fill-opacity:1"
       d="m 120.262,209.35414 c -3.27422,-0.10504 -8.69157,-0.32339 -12.03855,-0.48523 -3.34697,-0.16184 -9.00244,-0.41882 -12.5677,-0.57106 -10.24332,-0.43743 -26.61585,-1.48386 -43.25938,-2.76487 -8.44021,-0.64962 -20.10833,-1.54455 -25.92916,-1.98873 -24.50421,-1.86989 -34.60047,-2.89398 -35.28561,-3.57911 -0.64838,-0.64838 2.63359,-0.88276 12.62845,-0.90185 l 8.56367,-0.0164 -0.16972,-0.59531 c -0.67993,-2.38504 -0.95033,-3.58213 -0.95033,-4.20717 0,-0.3974 -0.11907,-0.79613 -0.26459,-0.88606 -0.15687,-0.0969 -0.26458,0.2083 -0.26458,0.74982 0,0.50235 -0.14883,0.96747 -0.33073,1.03362 -0.1819,0.0661 -1.91941,0.0238 -3.86113,-0.094 -3.96029,-0.24039 -4.81459,-0.55335 -5.72065,-2.09564 -0.51711,-0.88021 -0.53653,-1.29032 -0.48808,-10.30939 0.0975,-18.1517 0.8065,-24.44457 3.94981,-35.05729 1.74018,-5.87535 3.2871,-8.24783 5.78932,-8.87896 2.41473,-0.60906 4.90145,-1.659 5.85864,-2.47363 1.40102,-1.19236 1.08322,-1.05163 10.83192,-4.79656 4.79019,-1.84013 13.73688,-5.29734 19.88154,-7.68269 l 11.17209,-4.33699 1.52791,0.36144 1.5279,0.36143 -1.19063,0.53883 c -1.0596,0.47954 -10.09546,3.93508 -28.31041,10.82662 -20.85237,7.88939 -21.04299,7.96469 -21.53132,8.50428 -0.43323,0.47871 -0.58897,1.35852 -0.24048,1.35852 0.10374,0 3.70538,-1.29995 8.00364,-2.88877 4.29827,-1.58883 11.62503,-4.27975 16.2817,-5.97982 4.65667,-1.70007 11.32417,-4.13837 14.81667,-5.41844 13.49215,-4.94514 47.67088,-17.32443 54.43056,-19.71437 1.66943,-0.59024 2.13804,-0.88331 2.56239,-1.60251 0.62748,-1.0635 1.70598,-1.63682 5.18413,-2.75581 3.66475,-1.17902 7.33099,-1.39572 9.29792,-0.54957 1.77784,0.7648 2.52378,1.58511 3.62407,3.98535 1.98438,4.32886 2.57209,8.33793 3.74275,25.53124 0.50533,7.42156 1.15954,16.76796 1.4538,20.76979 0.29426,4.00182 0.71513,10.55026 0.93527,14.55208 1.37184,24.93872 1.72448,29.5619 2.28425,29.94728 0.70792,0.48738 12.67168,-0.2974 19.06184,-1.25037 4.52677,-0.67509 6.15208,-1.41889 10.89563,-4.98626 5.10863,-3.84192 4.42669,-3.68787 16.4378,-3.71331 l 10.05417,-0.0213 1.22925,0.72263 c 0.67609,0.39745 1.94104,1.51893 2.811,2.49217 l 1.58174,1.76954 0.34347,-0.64009 c 0.18891,-0.35204 0.42572,-1.35446 0.52624,-2.22758 0.15433,-1.34054 0.1884,-1.1058 0.21897,1.5089 0.0216,1.84545 -0.0864,3.36557 -0.26737,3.76266 -0.54735,1.20132 -0.96264,1.25581 -15.30685,2.00821 -16.67165,0.87449 -35.47287,2.04345 -35.64568,2.21625 -0.26093,0.26094 4.98258,0.18858 10.05416,-0.13873 2.58679,-0.16695 4.78278,-0.22402 4.87997,-0.12683 0.0972,0.0972 -0.57473,0.93491 -1.49317,1.86158 -1.4118,1.42446 -1.59353,1.70871 -1.17582,1.83909 0.27175,0.0848 4.7208,0.33527 9.88679,0.55655 15.88876,0.68059 35.1037,2.06694 37.3724,2.6964 2.3523,0.65266 1.98154,1.12633 -1.38906,1.77463 -4.17559,0.80312 -14.20095,1.52952 -27.78125,2.01292 -8.34812,0.29716 -44.90451,0.29235 -54.23958,-0.007 z m 23.28333,-7.92243 c 0,-0.14358 -0.32742,-0.73411 -0.72761,-1.3123 l -0.7276,-1.05124 -10.0671,0.16371 c -5.5369,0.09 -10.3887,0.083 -10.78177,-0.0157 -0.46639,-0.11706 -0.71467,-0.35604 -0.71467,-0.68788 0,-0.27969 -0.11906,-0.5821 -0.26458,-0.67204 -0.15472,-0.0956 -0.26459,0.17802 -0.26459,0.65899 0,0.45237 -0.17543,1.16175 -0.38984,1.57638 l -0.38985,0.75388 3.4987,0.18571 c 3.46068,0.18368 14.03661,0.5374 18.5138,0.6192 1.37472,0.0251 2.31511,-0.0637 2.31511,-0.21875 z m -36.71151,-0.60656 c 1.16673,-0.70633 2.92257,-2.94713 3.41372,-4.35659 0.43817,-1.25744 0.45621,-5.15921 0.0303,-6.54976 -0.85342,-2.78614 -3.312,-5.14179 -5.59546,-5.36121 -5.8542,-0.56251 -8.7359,8.91454 -4.42804,14.56252 1.72272,2.25863 4.48335,2.97403 6.5795,1.70504 z m -11.287,-1.3152 c -0.92025,-3.21041 -1.04332,-4.00114 -1.03983,-6.68073 0.006,-4.72439 1.06592,-7.69643 3.75919,-10.54242 0.81983,-0.86632 2.01993,-1.91454 2.66689,-2.32938 1.01547,-0.65113 1.08781,-0.75314 0.52916,-0.74617 -0.95533,0.0119 -3.39793,1.78522 -4.54445,3.29922 -1.27666,1.68587 -2.53904,4.92719 -3.03834,7.80135 -0.32165,1.85156 -0.33544,2.67867 -0.0787,4.71853 0.17123,1.36039 0.24608,2.53868 0.16633,2.61843 -0.0798,0.0797 -0.77422,0.13464 -1.54328,0.12198 -4.64779,-0.0765 -24.95096,-0.61486 -32.22223,-0.8544 -4.72943,-0.1558 -12.0121,-0.36523 -16.18373,-0.46541 -4.17162,-0.10018 -7.65953,-0.25694 -7.75092,-0.34835 -0.0914,-0.0914 -0.52091,-2.3536 -0.95449,-5.02708 -0.86274,-5.31958 -1.34,-7.30788 -2.2656,-9.43843 -1.16863,-2.68999 -2.1199,-3.47601 -4.19838,-3.46908 l -1.32292,0.004 1.35779,0.5222 c 1.29692,0.4988 2.74325,1.56445 2.74325,2.02123 0,0.11826 -0.98226,0.2145 -2.18281,0.21386 -2.63482,-0.001 -3.8188,0.52459 -5.47338,2.43157 -1.04826,1.20816 -1.09031,1.22968 -0.92248,0.47211 0.32708,-1.47645 1.15499,-3.08065 1.99475,-3.8651 0.99516,-0.92962 0.86744,-1.23407 -0.27079,-0.64547 -0.84602,0.4375 -2.08029,2.56871 -3.07195,5.30432 -0.26375,0.7276 -0.56009,1.41718 -0.65853,1.5324 -0.0984,0.11521 -0.6285,-0.77775 -1.17791,-1.98438 -2.01326,-4.42159 -3.45153,-5.63838 -5.86572,-4.96245 -1.05129,0.29434 -1.95034,1.05201 -1.95034,1.64363 0,0.11688 0.35127,0.0309 0.78061,-0.19116 1.68814,-0.87297 3.50749,-0.28063 4.48611,1.46061 0.69357,1.23403 0.69867,1.56357 0.0214,1.38647 -0.45886,-0.11999 -0.40704,0.0474 0.37398,1.20796 1.71162,2.54346 2.47325,8.12747 1.60907,11.79711 -0.26007,1.10431 -0.40694,2.07374 -0.32639,2.15429 0.0806,0.0805 0.47483,-0.4569 0.87619,-1.19433 0.7218,-1.32618 0.74368,-1.34078 2.01061,-1.34078 h 1.28087 l -0.051,-2.71198 c -0.0384,-2.04237 -0.0745,-2.28735 -0.14627,-0.99218 -0.0524,0.94588 -0.22175,1.83885 -0.37632,1.98437 -0.19785,0.18626 -0.2404,-0.6753 -0.14374,-2.91042 0.20058,-4.63854 1.37709,-7.53784 3.67618,-9.0593 0.90923,-0.6017 1.39466,-0.73028 2.75709,-0.73028 1.84822,0 2.70105,0.45093 3.74012,1.97758 0.79418,1.16684 1.03124,2.07022 1.80699,6.88596 0.92872,5.76539 0.99965,5.98473 1.99992,6.18479 0.45434,0.0909 1.28743,0.16521 1.85133,0.16521 1.09954,0 1.22685,0.22907 0.78022,1.4038 l -0.24504,0.6445 6.52889,0.16922 c 3.59089,0.0931 7.77905,0.19483 9.30702,0.22613 l 2.77813,0.0569 -0.0776,-0.9857 -0.0776,-0.98569 4.04634,0.009 c 3.95626,0.009 9.11713,0.34293 9.38076,0.60657 0.0728,0.0728 -0.006,0.39094 -0.17504,0.70691 -0.1691,0.31596 -0.26453,0.6174 -0.21208,0.66986 0.13048,0.13047 14.57184,0.56013 20.54971,0.61138 l 4.8595,0.0417 z M 28.7677,198.25079 c 1.25366,-1.03337 1.92325,-2.9339 1.91688,-5.44081 -0.004,-1.53832 -0.14416,-2.15039 -0.78815,-3.43958 -1.14843,-2.29903 -2.52008,-2.69235 -3.84192,-1.10167 -1.8485,2.22444 -1.68364,8.06111 0.28323,10.02798 0.94422,0.94422 1.23542,0.93872 2.42996,-0.0459 z m 100.46288,0.0248 c 0.28841,-0.18262 0.33229,-0.66132 0.19969,-2.17876 -0.0935,-1.0696 -0.4698,-5.99285 -0.8363,-10.94056 -0.3665,-4.9477 -1.07774,-13.87739 -1.58054,-19.84375 -1.08572,-12.88358 -1.78464,-22.02158 -2.50932,-32.80833 -0.50171,-7.4678 -0.72358,-9.81608 -0.96644,-10.22912 -0.0566,-0.0962 -1.91808,0.29399 -4.13667,0.86714 -6.62358,1.71112 -11.15206,2.89246 -11.58148,3.02127 -0.32405,0.0972 -0.3921,0.52683 -0.34414,2.1726 0.24621,8.44861 0.40466,20.18361 0.27702,20.51625 -0.13392,0.34899 -0.50858,0.30103 -2.7524,-0.35233 -7.14465,-2.08038 -13.56469,-2.78784 -23.20244,-2.55682 -10.50977,0.25192 -15.27883,0.95926 -38.5613,5.71934 -12.42908,2.54112 -17.82478,3.29691 -26.43794,3.70325 -2.84404,0.13417 -6.84904,0.17752 -8.9,0.0963 -3.54781,-0.14045 -3.7429,-0.12169 -4.01466,0.3861 -0.8926,1.66785 -1.28771,6.14732 -1.63946,18.58733 -0.31203,11.03523 -0.16737,12.7658 1.2926,15.46402 1.06707,1.97209 3.5496,3.33633 4.71827,2.59286 0.183,-0.11642 0.48427,-1.97328 0.73986,-4.56001 0.59164,-5.98785 0.87331,-7.8409 1.32444,-8.71329 0.50484,-0.97626 1.76048,-2.01802 2.8458,-2.36108 1.36701,-0.4321 17.34783,-1.14708 18.49211,-0.82734 0.79395,0.22185 1.09228,0.52574 1.75341,1.78604 0.43817,0.83529 1.06584,2.35215 1.39482,3.37079 0.8251,2.55482 1.3779,3.57634 2.55296,4.71768 1.17988,1.14601 2.70691,1.76718 6.17436,2.51163 5.04051,1.08217 7.54908,1.23741 19.97604,1.2362 12.42124,-0.001 14.05918,-0.11126 18.17972,-1.22137 2.19803,-0.59217 3.38382,-1.42691 3.38382,-2.38207 0,-1.41239 -3.83383,-4.00671 -10.35084,-7.0043 -9.99488,-4.59729 -20.6505,-8.27449 -34.88837,-12.0398 -1.23443,-0.32646 -2.10671,-0.63946 -1.93841,-0.69556 0.16831,-0.0561 2.54752,0.27036 5.28713,0.72548 15.87398,2.63707 24.34636,4.68118 37.92174,9.14927 3.27422,1.07765 6.21542,1.95954 6.53599,1.95975 2.19867,0.001 3.64527,-3.01179 2.12912,-4.43491 -1.76701,-1.65857 -21.81828,-6.43935 -35.12344,-8.37439 -14.77348,-2.14859 -22.22634,-2.79776 -34.39583,-2.996 -10.61336,-0.17289 -10.86673,-0.24187 -3.70417,-1.00846 5.53048,-0.59191 24.59726,-0.82446 33.20521,-0.40499 21.3752,1.04162 42.26707,3.84166 57.41458,7.695 7.04841,1.79303 7.16159,1.83103 8.29475,2.78452 1.56095,1.31345 2.01704,2.69276 5.46567,16.5292 2.00474,8.04336 2.6101,9.62838 3.88963,10.1843 0.96636,0.41984 3.83891,0.52191 4.41541,0.15689 z m -15.33883,-35.14588 c -0.0111,-0.40018 -0.0621,-0.94959 -0.11332,-1.22091 -0.0512,-0.27131 -0.01,-0.98087 0.0919,-1.5768 0.20288,-1.18841 0.27961,-1.22484 3.39039,-1.60937 1.9145,-0.23665 2.20755,0.11468 2.20755,2.64659 0,1.87339 -0.034,1.98493 -0.67869,2.23006 -0.37327,0.14192 -1.62343,0.25804 -2.77812,0.25804 h -2.09944 z m 4.05514,-0.23597 c 0.96028,-0.15872 0.99206,-0.19904 0.98814,-1.25386 -0.005,-1.32086 -0.29173,-1.83471 -0.9537,-1.70864 -0.35341,0.0673 -0.53577,0.38891 -0.62975,1.11059 -0.11684,0.89719 -0.25048,1.05628 -1.14417,1.36209 -0.55653,0.19043 -1.08239,0.41676 -1.16857,0.50294 -0.20467,0.20467 1.64082,0.19634 2.90805,-0.0131 z m 4.1242,-2.8134 c -3.36179,-3.64148 -6.91401,-6.55562 -10.98161,-9.00897 l -1.63189,-0.98427 -0.0313,-4.73454 c -0.0172,-2.60399 -0.14295,-7.21499 -0.27939,-10.24666 -0.13644,-3.03167 -0.2512,-5.88789 -0.25502,-6.34715 l -0.007,-0.83503 3.90261,-0.94321 c 6.48149,-1.5665 8.46473,-1.95796 8.81687,-1.74032 0.24295,0.15015 0.72302,5.24769 1.73474,18.42018 1.61411,21.01538 1.47693,18.87403 1.20915,18.87403 -0.1164,0 -1.23114,-1.10433 -2.47719,-2.45406 z m -105.8594,37.31294 c 0.87499,-0.94305 1.48581,-3.1816 1.31629,-4.82403 -0.20268,-1.96376 -1.04722,-3.77813 -1.91161,-4.10676 -0.98453,-0.37432 -1.54476,0.0153 -2.35238,1.63598 -1.1335,2.27462 -0.86649,5.84745 0.55431,7.41742 0.58988,0.6518 1.72901,0.59345 2.39339,-0.12261 z M 116.278,194.46725 c -0.008,-0.90092 -0.11376,-2.11428 -0.23416,-2.69636 -0.17157,-0.82949 -0.22549,-0.43994 -0.24933,1.80155 -0.0196,1.84657 0.0633,2.80195 0.23415,2.69636 0.14552,-0.0899 0.25772,-0.90063 0.24934,-1.80155 z m -29.11507,1.02133 c 0.92686,-0.4793 1.61365,-1.50269 1.61365,-2.40451 0,-0.68698 -0.006,-0.68897 -1.52135,-0.48617 -2.10804,0.28216 -39.0127,0.20424 -43.7224,-0.0923 -2.11005,-0.13286 -3.94294,-0.15079 -4.07309,-0.0398 -0.34522,0.29431 0.34426,1.78686 0.98345,2.12895 0.34994,0.18728 4.81321,0.37469 12.59757,0.52896 6.63059,0.1314 15.56796,0.33493 19.86082,0.45228 12.61319,0.34479 13.43539,0.33976 14.26135,-0.0874 z m 87.60323,-0.93957 c 0,-0.14552 -0.35719,-0.26458 -0.79375,-0.26458 -0.95409,0 -0.99369,-0.26722 -0.17983,-1.21339 0.59694,-0.69398 0.72916,-0.72097 4.77896,-0.97577 3.10349,-0.19525 4.33813,-0.18316 4.84422,0.0474 0.75838,0.34553 1.01351,0.23743 0.79339,-0.33618 -0.28298,-0.73745 -4.87924,-0.86325 -9.38911,-0.25698 -1.025,0.1378 -1.22656,0.29323 -2.05052,1.58128 -0.50258,0.78566 -0.91378,1.48569 -0.91378,1.55562 0,0.0699 0.65485,0.12716 1.45521,0.12716 0.80037,0 1.45521,-0.11907 1.45521,-0.26459 z m 7.9375,-0.52916 c 0,-0.31473 -2.08092,-0.32358 -3.57187,-0.0152 -0.88949,0.18398 -0.68897,0.22376 1.25677,0.24933 1.38729,0.0182 2.3151,-0.0756 2.3151,-0.23415 z M 97.13619,176.0392 c 2.87972,-1.82627 11.85845,-2.68677 14.90948,-1.4289 0.50149,0.20676 1.30516,0.67595 1.78594,1.04266 1.08875,0.83042 1.13308,0.42397 0.0841,-0.77078 -1.19592,-1.36207 -2.41355,-1.5941 -7.47809,-1.42501 -4.90008,0.16361 -7.66935,0.72197 -9.66183,1.94808 -1.40255,0.86309 -2.97211,2.97607 -2.97211,4.00114 0,0.55993 0.17669,0.39921 1.05494,-0.95961 0.66627,-1.03085 1.5054,-1.91787 2.27759,-2.40758 z m 95.11982,6.14424 c -0.20324,-0.0769 -0.72159,-0.54078 -1.15189,-1.03087 -0.89529,-1.01967 -1.25263,-1.06436 -4.16713,-0.52105 -5.0866,0.94822 -10.05235,0.77002 -18.07004,-0.64846 -2.50189,-0.44263 -4.78768,-0.74373 -5.07953,-0.66911 -0.29185,0.0746 -1.1725,0.5507 -1.95701,1.05796 -0.78451,0.50725 -1.7485,0.99303 -2.1422,1.0795 -0.72313,0.15883 -7.84761,-1.28657 -11.1158,-2.25515 -2.84017,-0.84172 -3.42445,-1.65117 -5.82006,-8.06287 -1.74157,-4.66123 -1.93597,-5.04388 -3.25963,-6.41615 -1.2782,-1.32513 -1.06245,-1.40784 0.89993,-0.34497 4.34531,2.35352 16.71363,6.31749 28.98555,9.2897 7.48509,1.81285 9.83919,2.19145 12.26484,1.9725 2.47998,-0.22386 7.6925,-1.30223 10.30548,-2.132 1.08748,-0.34534 2.02626,-0.57887 2.08617,-0.51895 0.27044,0.27044 -0.91172,2.51358 -1.32518,2.5145 -0.61785,0.001 -0.85643,0.94635 -0.47277,1.87258 0.41388,0.9992 0.61473,0.97538 1.27978,-0.1518 0.65447,-1.10924 1.35797,-1.2326 1.35797,-0.23812 0,0.43385 -0.34316,1.03108 -0.92915,1.61707 -0.74611,0.74611 -1.08492,0.9063 -1.71979,0.81312 -0.52961,-0.0777 -0.79064,-0.003 -0.79064,0.2257 0,0.59566 0.91268,0.89436 1.88269,0.61617 1.29821,-0.37233 1.48158,-0.32707 1.62056,0.39997 0.0892,0.4665 -0.0356,0.75989 -0.43217,1.01648 -0.70075,0.45335 -1.76688,0.69702 -2.24998,0.51425 z m -32.48756,-3.01154 c 0.31786,-0.16273 1.02254,-0.72086 1.56597,-1.24028 0.88076,-0.84187 1.12496,-0.93786 2.24896,-0.88401 0.6935,0.0332 2.68966,0.35276 4.43591,0.71006 7.13699,1.46034 12.78399,1.77099 18.22021,1.00232 2.47427,-0.34986 3.31098,-0.37891 3.9513,-0.13722 1.05627,0.3987 1.20306,0.2109 0.53203,-0.68069 -0.62017,-0.82402 -0.86289,-0.84449 -4.44729,-0.37513 -5.16281,0.67606 -11.49881,0.29325 -19.28528,-1.16516 -4.03049,-0.75492 -4.78903,-0.64485 -6.43136,0.93324 -0.60318,0.57959 -1.38616,1.12646 -1.73994,1.21525 -0.82086,0.20602 -10.63078,-2.16095 -11.05011,-2.66621 -0.24522,-0.29547 -0.11434,-0.55303 0.64483,-1.26902 0.57688,-0.54407 0.95209,-1.14683 0.95149,-1.52853 -0.001,-0.79627 -0.93304,-2.35001 -1.40932,-2.35001 -0.54297,0 -1.15342,0.81705 -1.36981,1.83339 l -0.19318,0.90734 -0.36205,-0.64276 c -0.47299,-0.83971 -1.2492,-3.42244 -1.07956,-3.59208 0.17589,-0.17589 0.96257,0.0664 7.28667,2.24456 5.50764,1.89693 6.47977,2.43059 6.73974,3.69986 0.0799,0.38999 0.32743,0.94719 0.55012,1.23823 0.38891,0.50829 0.40522,0.4949 0.4133,-0.33922 0.0203,-2.09504 -1.08628,-3.31928 -3.83076,-4.23806 -0.87163,-0.2918 -3.83161,-1.31605 -6.57772,-2.27611 -2.74612,-0.96006 -5.21666,-1.74556 -5.4901,-1.74556 -0.72482,0 -0.63237,0.60526 0.56809,3.71912 2.0441,5.30218 2.15306,5.39523 7.87853,6.7287 2.28419,0.53199 4.27215,1.00884 4.41767,1.05966 0.60353,0.21078 2.32399,0.11358 2.86166,-0.16168 z m -2.05967,-2.26372 c 0.31893,-0.31893 0.40066,-0.70338 0.29195,-1.37325 -0.17451,-1.07539 -0.79131,-1.75336 -1.81096,-1.99056 -0.89417,-0.208 -1.39947,0.5665 -1.15783,1.7747 0.36979,1.84892 1.65441,2.61154 2.67684,1.58911 z m -4.50791,-1.40578 c 0.47548,-0.91947 0.10776,-2.4523 -0.72886,-3.0383 -0.78111,-0.5471 -0.86759,-0.52483 -1.52006,0.39148 -0.49968,0.70174 -0.53026,0.9072 -0.25788,1.73251 0.36741,1.11327 1.22633,1.98779 1.75361,1.78546 0.2077,-0.0797 0.54663,-0.47172 0.75319,-0.87115 z m 26.32433,-6.35449 c -1.85438,-0.29086 -17.02701,-4.06856 -19.31112,-4.80811 -2.7875,-0.90255 -5.08946,-2.17847 -11.1125,-6.1594 -3.1287,-2.06791 -7.59354,-4.98719 -9.92188,-6.48729 -6.45631,-4.15968 -6.57983,-4.3262 -6.87429,-9.26701 -0.88433,-14.83864 -1.69059,-23.10745 -2.78622,-28.575 -0.90472,-4.51488 -1.56747,-6.6446 -2.80238,-9.00536 -1.24208,-2.37447 -2.18505,-3.44435 -3.8472,-4.365 -1.31737,-0.72967 -1.603,-0.78326 -4.06282,-0.76228 -1.81917,0.0155 -3.32988,0.2038 -4.8352,0.60262 -3.39537,0.89957 -15.93932,5.58117 -42.91708,16.01733 -5.95629,2.30416 -7.14668,2.6777 -6.46967,2.03018 0.32039,-0.30642 28.44274,-11.55358 39.4341,-15.77113 11.58056,-4.44364 15.15163,-5.497415 21.53472,-6.354618 13.10189,-1.75948 30.26703,2.605918 44.84688,11.405368 6.27404,3.7866 9.31079,6.7888 11.55333,11.42189 0.96668,1.99714 1.11663,2.18044 1.50696,1.84204 0.376,-0.32599 0.97702,-0.29508 4.5345,0.23322 4.68759,0.69613 8.15711,1.42764 11.34697,2.3924 3.28784,0.99439 4.13071,1.89974 6.00752,6.45292 1.94822,4.72639 1.96009,4.7725 1.96009,7.61352 0,2.44606 -0.42103,4.15656 -1.13474,4.61014 -0.17626,0.11201 -0.88296,0.20548 -1.57045,0.20771 -1.12776,0.004 -1.2908,-0.0749 -1.66753,-0.80342 -0.22965,-0.44411 -0.77663,-2.617 -1.2155,-4.82864 -1.5518,-7.82021 -2.03643,-8.20078 -11.34809,-8.91143 -4.93359,-0.37652 -4.65994,-0.77761 -3.0337,4.44661 1.50142,4.82327 1.98181,6.77449 4.24564,17.24468 1.42257,6.57934 2.89411,16.7517 2.55626,17.67072 -0.0688,0.18728 -0.44639,0.50662 -0.83899,0.70964 -1.64681,0.8516 -10.8715,1.65351 -13.77761,1.1977 z m -26.27913,-41.9395 c 0.33385,-0.21874 0.77801,-0.72842 0.98703,-1.13262 1.12482,-2.17517 1.78248,-9.73634 1.26005,-14.48708 -0.61856,-5.62502 -2.19396,-7.74271 -6.5979,-8.86905 -3.82893,-0.97927 -11.69992,-1.71049 -11.69992,-1.08693 0,0.11938 1.41132,0.36251 3.13627,0.54028 3.75018,0.3865 8.30558,1.37625 9.76791,2.12227 3.29691,1.68196 4.34329,4.42047 4.35894,11.4079 0.01,4.35136 -0.54853,8.61495 -1.27278,9.7203 -0.24875,0.37964 -0.65593,0.5983 -1.11363,0.59803 l -0.7215,-4.2e-4 -0.0322,-4.43135 c -0.0328,-4.51612 -0.58265,-9.61836 -1.31367,-12.19076 -0.49747,-1.75056 -2.05998,-3.51929 -3.61592,-4.09314 -2.34953,-0.86653 -6.66635,-1.55592 -10.51632,-1.67942 l -3.83646,-0.12308 0.73973,0.62942 c 0.40685,0.34619 2.19279,1.26538 3.96875,2.04266 6.34242,2.77587 6.99042,3.12614 7.5959,4.10583 0.46146,0.74665 0.64215,1.71904 0.94596,5.09067 0.55518,6.16125 1.14741,10.13418 1.63329,10.95669 0.65202,1.10379 2.26071,1.59383 4.54606,1.38484 0.64539,-0.059 1.44659,-0.28629 1.78043,-0.50504 z m -9.36715,-14.65658 c -0.97333,-1.33359 -2.26515,-1.72783 -5.62526,-1.71671 -1.67349,0.006 -3.34036,0.14307 -3.70416,0.30562 -0.53097,0.23726 0.0191,0.29887 2.7882,0.31234 4.17438,0.0203 5.45281,0.48046 6.33992,2.28205 l 0.52917,1.07466 0.0861,-0.78643 c 0.0515,-0.47018 -0.115,-1.06192 -0.41395,-1.47153 z"
       id="path1"
       inkscape:export-filename="bus-logo"
       inkscape:export-xdpi="96"
       inkscape:export-ydpi="96" /></g></svg>
