<?xml version="1.0" encoding="UTF-8" standalone="no"?>
<!-- Created with Inkscape (http://www.inkscape.org/) -->

<svg
   width="99.455666mm"
   height="35.110382mm"
   viewBox="0 0 99.455666 35.110382"
   version="1.1"
   id="svg1"
   xml:space="preserve"
   sodipodi:docname="bus.svg"
   inkscape:version="1.4.2 (1:1.4.2+202505120737+ebf0e940d0)"
   xmlns:inkscape="http://www.inkscape.org/namespaces/inkscape"
   xmlns:sodipodi="http://sodipodi.sourceforge.net/DTD/sodipodi-0.dtd"
   xmlns="http://www.w3.org/2000/svg"
   xmlns:svg="http://www.w3.org/2000/svg"><sodipodi:namedview
     id="namedview1"
     pagecolor="#ffffff"
     bordercolor="#000000"
     borderopacity="0.25"
     inkscape:showpageshadow="2"
     inkscape:pageopacity="0.0"
     inkscape:pagecheckerboard="0"
     inkscape:deskcolor="#d1d1d1"
     inkscape:document-units="mm"
     inkscape:zoom="1.167878"
     inkscape:cx="188.37583"
     inkscape:cy="65.931542"
     inkscape:window-width="1920"
     inkscape:window-height="956"
     inkscape:window-x="0"
     inkscape:window-y="0"
     inkscape:window-maximized="1"
     inkscape:current-layer="layer1"><inkscape:page
       x="0"
       y="5.6027704e-23"
       width="99.455666"
       height="35.110382"
       id="page2"
       margin="0"
       bleed="0" /></sodipodi:namedview><defs
     id="defs1" /><g
     inkscape:label="Layer 1"
     inkscape:groupmode="layer"
     id="layer1"
     transform="translate(-241.41037,-125.69609)"><path
       style="fill:#4892f6;fill-opacity:1"
       d="m 266.65044,160.44903 c -3.21583,-1.13757 -4.50527,-5.27757 -2.50416,-8.04004 2.71953,-3.7542 8.77398,-2.34546 9.63454,2.24175 0.29427,1.56861 -0.46902,3.62013 -1.75714,4.72272 -1.69066,1.44713 -3.37164,1.78362 -5.37324,1.07557 z m 3.18071,-2.40096 c 2.7558,-1.30772 1.73706,-5.40352 -1.34401,-5.40352 -2.97002,0 -4.10474,3.79044 -1.59321,5.32197 0.99551,0.60706 1.78367,0.62894 2.93722,0.0816 z m -2.09479,-2.00484 c -0.56381,-0.80494 -0.10812,-1.60701 0.8501,-1.49631 0.79926,0.0923 1.11241,1.02501 0.56543,1.68407 -0.44908,0.54112 -0.95171,0.47445 -1.41553,-0.18776 z m 49.4495,4.4058 c -0.58209,-0.2059 -1.49663,-0.84212 -2.03231,-1.41382 -3.1661,-3.37894 -0.82372,-8.74474 3.82674,-8.7661 2.17553,-0.01 3.80506,0.91079 4.69392,2.65233 1.17979,2.31154 0.8701,4.47282 -0.89362,6.23654 -1.60432,1.60433 -3.48335,2.03794 -5.59473,1.29105 z m 3.72121,-2.63194 c 0.88789,-0.58177 1.34868,-2.25895 0.91095,-3.31572 -0.81433,-1.96597 -3.32502,-2.54321 -4.77126,-1.09697 -0.9846,0.9846 -1.20738,1.92682 -0.74579,3.15419 0.65848,1.75089 2.91406,2.36717 4.6061,1.2585 z m -2.4176,-1.40628 c -0.92672,-0.63456 -0.40889,-2.02905 0.69558,-1.87316 0.4389,0.0619 0.67441,0.28721 0.73309,0.70115 0.14209,1.0023 -0.68529,1.68104 -1.42867,1.17201 z m -72.83487,-0.21344 c -1.82612,-0.49125 -2.81755,-1.21255 -3.55026,-2.58291 -0.54435,-1.01809 -0.59592,-1.51612 -0.67584,-6.52616 -0.14387,-9.01906 0.5688,-15.08124 2.14566,-18.25158 0.68527,-1.37777 1.08708,-1.84615 2.0428,-2.38125 l 1.18973,-0.66613 39.15833,-0.0768 c 25.87674,-0.0507 39.86373,0.016 41.23806,0.19671 3.40115,0.44721 6.03419,1.97629 7.44527,4.32368 0.22684,0.37735 0.43444,0.40009 1.45521,0.15939 1.66582,-0.3928 3.3379,-0.16058 4.11752,0.57183 0.61286,0.57575 0.64498,0.7613 0.64498,3.7255 0,2.88788 -0.0408,3.14142 -0.54984,3.41383 -1.09214,0.5845 -1.30224,0.18803 -1.30224,-2.45743 0,-2.99131 -0.32195,-3.64113 -1.80094,-3.635 -1.76651,0.007 -1.79052,0.10549 -0.88133,3.60182 1.31125,5.04247 1.8887,8.98714 1.88704,12.89074 -0.002,3.86373 -0.23598,5.07653 -1.20295,6.22571 -0.96369,1.14529 -2.66157,1.60574 -6.62122,1.79565 -4.68313,0.22459 -4.76162,0.1986 -4.95135,-1.63962 -0.34846,-3.3763 -2.99661,-5.75603 -6.40529,-5.75603 -3.3697,0 -6.01574,2.34471 -6.39969,5.67089 -0.0899,0.77889 -0.29411,1.50364 -0.45377,1.61055 -0.34713,0.23245 -36.17823,0.27326 -36.78115,0.0419 -0.27221,-0.10445 -0.42258,-0.49756 -0.43013,-1.12448 -0.0409,-3.39591 -2.94667,-6.19039 -6.43496,-6.18853 -1.83456,9.8e-4 -3.06539,0.43322 -4.37301,1.53573 -1.12689,0.95012 -2.13903,3.08575 -2.14242,4.52051 -0.002,0.75376 -0.13331,1.14634 -0.4211,1.25677 -0.23018,0.0883 -3.5937,0.15277 -7.47448,0.14319 -5.26406,-0.013 -7.41573,-0.1142 -8.47263,-0.39852 z m 2.8111,-6.2648 0.0715,-5.4901 h 39.68214 39.68213 v 5.58886 5.58886 l 3.10885,-0.12137 c 3.5926,-0.14025 4.82196,-0.54441 5.61562,-1.84616 0.47742,-0.78307 0.53407,-1.3297 0.53496,-5.16186 10e-4,-4.64107 -0.36001,-7.15092 -1.89561,-13.17646 -1.2769,-5.01036 -2.39022,-6.62049 -5.42391,-7.84423 l -1.54303,-0.62243 -39.95209,-0.0782 c -21.97365,-0.043 -40.44022,-0.009 -41.03682,0.0764 -2.65631,0.37864 -4.06611,3.69046 -4.74365,11.14356 -0.15978,1.75755 -0.1347,1.89082 0.38128,2.02575 0.51178,0.13383 0.55231,0.33137 0.55231,2.69127 0,2.37388 -0.0391,2.5613 -0.57574,2.75982 -0.55217,0.20426 -0.5732,0.34204 -0.51372,3.36491 0.0486,2.46965 0.172,3.38228 0.57012,4.21605 0.72924,1.52724 2.57989,2.52719 4.48809,2.42504 l 0.92605,-0.0496 z m 80.25325,-5.95484 -0.72932,-0.72932 -0.17562,-5.02537 c -0.26425,-7.5615 -0.23429,-9.39199 0.15362,-9.38518 0.75678,0.0133 2.52098,1.03854 3.22604,1.87477 1.38758,1.64575 2.03944,3.87611 2.65949,9.09963 0.22457,1.89177 0.47504,3.76701 0.55662,4.16719 l 0.14833,0.7276 h -2.55492 c -2.43586,0 -2.5889,-0.034 -3.28424,-0.72932 z m -79.67125,-5.15766 c -1.76324,-0.89076 -2.37331,-1.98454 -2.37331,-4.25507 0,-3.62096 1.71369,-5.51658 5.14371,-5.68979 l 1.89082,-0.0955 0.85668,4.85481 c 0.47118,2.67014 0.85294,5.06316 0.84836,5.31782 -0.007,0.40887 -0.3112,0.46303 -2.59809,0.46303 -2.16014,0 -2.78526,-0.0988 -3.76817,-0.59532 z m 7.55889,0 c -0.16746,-0.75496 -1.73011,-9.64328 -1.73011,-9.84082 0,-0.081 2.42672,-0.1472 5.39271,-0.1472 h 5.39272 l 0.45741,2.57969 c 0.25158,1.41883 0.66591,3.73715 0.92075,5.15182 0.25483,1.41467 0.4004,2.63506 0.32348,2.71198 -0.0769,0.0769 -2.49899,0.13985 -5.38238,0.13985 -5.22118,0 -5.24306,-0.002 -5.37458,-0.59532 z m 11.92219,-0.13229 c -0.0814,-0.40018 -0.45045,-2.45401 -0.82001,-4.56406 -0.36957,-2.11005 -0.73857,-4.16388 -0.82001,-4.56406 l -0.14808,-0.72761 h 5.42396 5.42396 l 0.14672,0.72761 c 0.0807,0.40018 0.45013,2.51354 0.82096,4.69635 0.37084,2.18281 0.73326,4.23664 0.80539,4.56406 l 0.13114,0.59532 h -5.40798 -5.40797 z m 12.01228,0.5295 c 0,-0.22457 -1.52969,-8.87575 -1.73104,-9.78992 l -0.13112,-0.59531 h 5.41024 5.41024 l 0.27317,1.38906 c 0.15025,0.76399 0.51761,2.81782 0.81638,4.56407 0.29876,1.74625 0.61045,3.50242 0.69265,3.9026 l 0.14945,0.72761 h -5.44498 c -2.99474,0 -5.44499,-0.0891 -5.44499,-0.19811 z m 12.04586,-0.0547 c -0.0859,-0.13901 -0.51416,-2.3119 -0.95165,-4.82864 -0.43749,-2.51674 -0.8585,-4.78426 -0.93557,-5.03892 -0.13028,-0.43049 0.24177,-0.46302 5.29662,-0.46302 5.42287,0 5.43708,0.002 5.56787,0.59531 0.20135,0.91417 1.73104,9.56535 1.73104,9.78992 0,0.29698 -10.52418,0.24328 -10.70831,-0.0547 z m 11.88325,-0.0896 c -0.0722,-0.18829 -0.52313,-2.56954 -1.00194,-5.29166 l -0.87058,-4.94933 h 5.35805 c 4.87425,0 5.37042,0.0418 5.4952,0.46302 0.17059,0.57587 1.75058,9.45774 1.75058,9.84083 0,0.44276 -10.56102,0.3809 -10.73131,-0.0629 z m 11.92018,0.0116 c -0.18105,-0.50988 -1.71748,-9.266 -1.71778,-9.78959 -2.4e-4,-0.42662 0.44692,-0.46302 5.68829,-0.46302 h 5.68854 v 5.29167 5.29167 h -4.77081 c -3.57762,0 -4.80017,-0.0827 -4.88824,-0.33073 z m -55.28741,15.34591 c 0.95383,-5.71842 7.87078,-8.28911 12.24017,-4.54908 1.12118,0.95969 2.43545,3.25245 2.43545,4.24866 0,1.0448 0.28986,1.4249 1.08664,1.4249 h 0.76544 v -5.29167 -5.29166 h -14.2875 -14.2875 v 5.29166 5.29167 h 5.92987 5.92987 z m 32.13812,-4.16719 v -5.29166 h -7.54062 -7.54063 v 5.29166 5.29167 h 7.54063 7.54062 z m -8.59895,2.91042 c 0.0899,-0.14552 0.63274,-0.26458 1.20624,-0.26458 0.57349,0 1.04271,0.11906 1.04271,0.26458 0,0.14552 -0.5428,0.26458 -1.20624,0.26458 -0.73678,0 -1.14259,-0.10297 -1.04271,-0.26458 z m 24.20937,-2.91042 v -5.29166 h -7.54062 -7.54063 v 5.29166 5.29167 h 7.54063 7.54062 z m -8.73125,2.91042 c 0,-0.14552 0.53578,-0.26458 1.19063,-0.26458 0.65484,0 1.19062,0.11906 1.19062,0.26458 0,0.14552 -0.53578,0.26458 -1.19062,0.26458 -0.65485,0 -1.19063,-0.11906 -1.19063,-0.26458 z m 11.63481,0.95908 c 0.74362,-3.58199 3.66859,-5.98616 7.2829,-5.98616 3.61431,0 6.53928,2.40417 7.2829,5.98616 0.19072,0.91867 0.42911,1.42217 0.67336,1.42217 0.31516,0 0.37811,-0.88103 0.37811,-5.29167 v -5.29166 h -8.99583 -8.99583 v 5.29166 5.29167 h 1.03957 1.03958 z"
       id="path2" /></g></svg>
