<svg width="60" height="60" viewBox="0 0 60 60" fill="none" xmlns="http://www.w3.org/2000/svg">
<path d="M30.2045 0.00144406C30.308 0.00115886 30.4115 0.000749488 30.515 0.000328031C31.6471 -0.00356826 32.7799 0.0250165 33.8994 0.207051C33.9825 0.219993 33.9825 0.219993 34.0673 0.233196C34.4462 0.292957 34.8237 0.357456 35.1997 0.433284C35.3386 0.460364 35.4779 0.485059 35.6173 0.509943C36.6923 0.707496 37.7368 1.00134 38.7857 1.30629C38.9034 1.34042 39.0212 1.37421 39.139 1.40794C39.4963 1.51081 39.8489 1.61716 40.1931 1.75897C40.2673 1.78876 40.3416 1.81846 40.4159 1.84809C40.4515 1.86228 40.487 1.87648 40.5237 1.89111C40.6743 1.94966 40.827 2.00165 40.9798 2.05398C41.2709 2.15708 41.5485 2.28006 41.8267 2.41373C42.0011 2.4975 42.1769 2.57794 42.3533 2.65766C43.8951 3.35733 45.3789 4.16236 46.7726 5.12708C46.8062 5.15027 46.8397 5.17345 46.8743 5.19733C47.6592 5.74121 48.4072 6.327 49.1445 6.93368C49.2308 7.0043 49.3177 7.07429 49.4053 7.14342C49.7766 7.43888 50.1178 7.76247 50.4615 8.08917C50.6103 8.23044 50.7611 8.36888 50.9152 8.50442C51.1901 8.74628 51.4328 9.00988 51.6765 9.28268C51.7706 9.3859 51.8665 9.48524 51.9662 9.58308C52.1466 9.76106 52.3114 9.95002 52.4763 10.1424C52.5203 10.1931 52.5644 10.2438 52.6084 10.2945C52.9689 10.7105 53.316 11.1358 53.6564 11.5683C53.7168 11.6446 53.7168 11.6446 53.7785 11.7223C54.9553 13.226 55.9484 14.8786 56.8032 16.5836C56.8311 16.6392 56.859 16.6948 56.8878 16.7521C57.3658 17.7085 57.8052 18.6777 58.1352 19.6964C58.1775 19.8216 58.2247 19.9433 58.2752 20.0654C58.9913 21.8263 59.3909 23.7782 59.638 25.6561C59.6543 25.7733 59.6733 25.8897 59.6933 26.0063C60.1011 28.4409 60.0911 31.1851 59.7295 33.6214C59.7053 33.7857 59.6833 33.95 59.662 34.1147C59.562 34.8689 59.424 35.6062 59.2482 36.3463C59.2155 36.4846 59.1839 36.623 59.1528 36.7616C58.9639 37.5922 58.7416 38.4213 58.4669 39.2278C58.4142 39.3835 58.3634 39.5398 58.3125 39.696C58.2811 39.7917 58.2496 39.8874 58.2181 39.983C58.1968 40.0478 58.1757 40.1126 58.1546 40.1775C58.0372 40.539 57.9123 40.8912 57.7495 41.2354C57.6858 41.3704 57.6259 41.5066 57.5667 41.6436C57.0732 42.7809 56.5439 43.8837 55.9182 44.9545C55.8631 45.0495 55.808 45.1446 55.753 45.2397C55.4482 45.7633 55.133 46.2762 54.7873 46.7737C54.764 46.8074 54.7408 46.841 54.7168 46.8757C54.3925 47.3437 54.0566 47.8005 53.7055 48.2488C53.6782 48.2846 53.6509 48.3203 53.6227 48.3571C53.179 48.9371 52.7114 49.4971 52.2112 50.0291C52.1052 50.1426 52.0026 50.2575 51.9016 50.3754C51.7417 50.5608 51.5685 50.731 51.3942 50.9026C51.2914 51.0035 51.2914 51.0035 51.1948 51.1314C51.0818 51.27 50.9537 51.3772 50.818 51.4931C50.6936 51.6035 50.5771 51.7198 50.4603 51.8382C50.2549 52.0455 50.0434 52.2393 49.8211 52.4282C49.7712 52.4715 49.7212 52.5148 49.6713 52.5581C48.7478 53.3577 47.7889 54.1093 46.7726 54.7884C46.7379 54.8116 46.7031 54.8348 46.6674 54.8588C45.1863 55.8444 43.6332 56.6852 42.0148 57.4204C41.9121 57.467 41.8096 57.5141 41.7074 57.5616C41.442 57.6845 41.1772 57.7933 40.8999 57.8861C40.657 57.9692 40.4192 58.0563 40.1839 58.1596C39.9229 58.2713 39.6581 58.3529 39.385 58.4288C39.1593 58.4919 38.9384 58.5642 38.7169 58.6405C38.273 58.7912 37.8207 58.9048 37.3659 59.017C37.3229 59.0277 37.28 59.0383 37.2357 59.0493C36.56 59.2171 35.8838 59.3664 35.1978 59.4861C35.0828 59.5065 34.9682 59.5282 34.8536 59.5507C34.2727 59.6631 33.6853 59.7253 33.0969 59.7842C32.9607 59.7982 32.8249 59.8133 32.6889 59.8295C31.938 59.9149 31.1881 59.9177 30.4334 59.9147C30.3271 59.9143 30.2209 59.9141 30.1146 59.9139C28.5067 59.9101 26.925 59.8591 25.3347 59.607C25.2863 59.5994 25.238 59.5918 25.1882 59.5839C21.3272 58.9586 17.5984 57.5846 14.2715 55.5259C14.2282 55.4994 14.1848 55.4729 14.1401 55.4455C13.298 54.9298 12.4918 54.3649 11.7147 53.7558C11.6359 53.6961 11.5571 53.6365 11.4782 53.5769C10.9677 53.1895 10.4863 52.768 10.012 52.3374C9.93104 52.2639 9.8497 52.1908 9.76807 52.1181C9.55001 51.9236 9.33829 51.7262 9.13386 51.5175C9.05468 51.4373 9.05468 51.4373 8.93661 51.3496C8.83249 51.2637 8.7558 51.1843 8.66925 51.0822C8.50021 50.8836 8.31736 50.7024 8.13146 50.5198C7.88629 50.278 7.66131 50.0301 7.44769 49.7594C7.28421 49.5588 7.1069 49.3721 6.9293 49.184C6.80216 49.0449 6.69074 48.8964 6.579 48.7448C6.50355 48.6433 6.42606 48.5438 6.34752 48.4447C4.20655 45.7376 2.51073 42.6103 1.47403 39.3137C1.43981 39.2065 1.40407 39.1 1.36794 38.9934C1.29545 38.7763 1.23032 38.5578 1.16839 38.3375C1.15188 38.2789 1.15188 38.2789 1.13503 38.2192C1.09962 38.0929 1.06451 37.9666 1.02952 37.8402C1.01751 37.7969 1.0055 37.7535 0.993127 37.7088C0.788424 36.9659 0.618102 36.2233 0.481432 35.4647C0.458427 35.337 0.434391 35.2097 0.409718 35.0823C0.308142 34.5492 0.238867 34.0116 0.178923 33.4724C0.166072 33.3572 0.152762 33.242 0.139021 33.1269C0.0210267 32.1167 -0.00102143 31.1127 3.54294e-05 30.096C9.26225e-05 30.0039 9.11216e-05 30.0039 0.00014947 29.9099C0.00205508 28.8507 0.0179176 27.7913 0.129106 26.7371C0.135539 26.6744 0.141972 26.6118 0.148601 26.5472C0.189105 26.1681 0.242041 25.7976 0.320214 25.4243C0.355353 25.2434 0.380781 25.0636 0.404316 24.881C0.483555 24.2698 0.617414 23.6765 0.762764 23.0779C0.795603 22.9408 0.826845 22.8035 0.857238 22.6658C1.07877 21.674 1.34501 20.5939 1.77629 19.6721C1.85185 19.5091 1.91274 19.3446 1.96959 19.1743C2.54633 17.4585 3.43835 15.808 4.38842 14.2726C4.41496 14.2293 4.44149 14.1859 4.46883 14.1413C4.9718 13.3199 5.52097 12.5275 6.10936 11.765C6.13941 11.7257 6.13941 11.7257 6.17008 11.6857C6.63072 11.0849 7.12597 10.516 7.63458 9.9555C7.72687 9.85301 7.81715 9.74907 7.90712 9.64454C8.05509 9.47436 8.21269 9.31643 8.37346 9.15842C8.4637 9.06656 8.54657 8.97179 8.6293 8.87319C8.82276 8.64778 9.043 8.45304 9.26313 8.25454C9.37475 8.15283 9.48248 8.04985 9.58811 7.94204C9.76397 7.76367 9.95115 7.60101 10.1413 7.43806C10.192 7.39403 10.2427 7.34998 10.2934 7.30591C10.7093 6.94544 11.1329 6.59611 11.5672 6.25798C11.6202 6.21666 11.6202 6.21666 11.6742 6.17451C12.7625 5.33056 13.9172 4.58891 15.1074 3.89784C15.1638 3.86487 15.1638 3.86487 15.2213 3.83122C16.6729 2.98611 18.2241 2.25024 19.8195 1.7212C19.9439 1.67917 20.0675 1.63512 20.1911 1.59091C21.2813 1.20217 22.3872 0.910242 23.5154 0.652651C23.565 0.641305 23.6146 0.62996 23.6658 0.61827C25.8314 0.132849 27.9933 0.00704929 30.2045 0.00144406Z" fill="#767676"/>
<path d="M29.8644 6.77734C29.9519 6.77724 29.9519 6.77724 30.041 6.77713C31.639 6.77867 33.2126 6.95727 34.7752 7.29055C34.844 7.30458 34.844 7.30458 34.9142 7.3189C35.6212 7.46333 36.3055 7.66526 36.9927 7.88454C37.1183 7.92435 37.2442 7.96307 37.3705 8.00101C37.4051 8.0115 37.4398 8.02199 37.4755 8.0328C37.5627 8.05916 37.65 8.08541 37.7373 8.11164C38.4214 8.34843 39.0807 8.66792 39.7414 8.96231C39.8005 8.98847 39.8005 8.98847 39.8608 9.01516C41.418 9.70738 42.8835 10.6572 44.2158 11.7158C44.2472 11.7407 44.2786 11.7656 44.3109 11.7913C44.6891 12.0927 45.0602 12.3984 45.4143 12.728C45.5152 12.8208 45.6174 12.9103 45.7214 12.9994C45.961 13.2084 46.1855 13.4322 46.4097 13.6574C46.4806 13.7286 46.5517 13.7995 46.6229 13.8703C46.854 14.1013 47.0791 14.3351 47.2918 14.5832C47.3834 14.6902 47.4791 14.7931 47.5747 14.8965C47.8083 15.1557 48.0206 15.4293 48.23 15.7081C48.3002 15.8013 48.371 15.894 48.4419 15.9867C49.2209 17.009 49.9083 18.1029 50.5095 19.2388C50.532 19.2809 50.5545 19.3231 50.5776 19.3666C50.9018 19.9802 51.1859 20.606 51.4468 21.2486C51.4605 21.2821 51.4741 21.3156 51.4882 21.3501C51.6252 21.6879 51.755 22.0249 51.8543 22.376C51.8954 22.5149 51.947 22.6487 51.9991 22.7839C52.0562 22.9377 52.102 23.0947 52.1475 23.2522C52.1577 23.2875 52.1679 23.3228 52.1785 23.3591C52.2125 23.4771 52.2461 23.5951 52.2796 23.7132C52.292 23.7565 52.3044 23.7999 52.3172 23.8445C52.5181 24.5501 52.684 25.2457 52.7713 25.975C52.6822 25.9681 52.5931 25.9609 52.504 25.9535C52.4543 25.9495 52.4047 25.9455 52.3536 25.9414C52.2305 25.9258 52.2305 25.9258 52.1813 25.8767C52.0522 25.8582 51.9236 25.8419 51.7941 25.8275C51.4137 25.7847 51.4137 25.7847 51.2471 25.7291C51.1303 25.7144 51.0138 25.7014 50.8967 25.6892C50.4241 25.6369 49.956 25.5601 49.4868 25.4835C49.2216 25.4402 48.9561 25.3996 48.6902 25.3604C48.322 25.306 47.9545 25.2477 47.587 25.1883C47.2217 25.1292 46.8564 25.073 46.4899 25.0223C46.0166 24.9564 45.5449 24.8808 45.0732 24.8041C45.0151 24.7947 45.0151 24.7947 44.9558 24.7851C44.5197 24.7142 44.0837 24.642 43.6481 24.5679C42.9666 24.4522 42.287 24.3391 41.6001 24.2595C41.1479 24.2058 40.7001 24.1295 40.2513 24.0531C39.3472 23.8995 38.4408 23.7612 37.5287 23.664C37.4772 23.6585 37.4257 23.653 37.3725 23.6473C37.2869 23.6382 37.2869 23.6382 37.1995 23.6289C37.1101 23.6193 37.1101 23.6193 37.0189 23.6096C36.902 23.5971 36.785 23.5848 36.6681 23.5726C36.3785 23.5421 36.0899 23.5082 35.8013 23.4693C35.2025 23.3922 34.6 23.3529 33.9978 23.3137C33.9478 23.3104 33.9478 23.3104 33.8969 23.3071C32.5944 23.2225 31.2935 23.2024 29.9886 23.203C29.8452 23.2031 29.7018 23.2029 29.5585 23.2028C28.344 23.2024 27.1364 23.2376 25.9247 23.3198C25.8583 23.3243 25.7919 23.3287 25.7254 23.3331C25.1439 23.3721 24.5662 23.4168 23.9887 23.4956C23.8039 23.5173 23.6213 23.527 23.4355 23.535C22.5935 23.5739 21.7506 23.7177 20.9195 23.8536C20.5706 23.9103 20.2207 23.9591 19.8707 24.0082C19.4742 24.0641 19.0791 24.1225 18.6851 24.1945C17.7615 24.3626 16.8326 24.5008 15.9035 24.6348C15.3156 24.7198 14.73 24.8157 14.1444 24.9154C13.5753 25.012 13.0058 25.096 12.4335 25.1721C12.0738 25.2203 11.7198 25.2797 11.3638 25.3504C11.1414 25.3909 10.9186 25.4205 10.6944 25.4495C10.1984 25.5137 9.70616 25.5959 9.2132 25.68C8.5246 25.7973 7.83644 25.8983 7.14193 25.975C7.279 24.7777 7.57552 23.4711 8.0508 22.3629C8.11286 22.2181 8.16606 22.0736 8.21561 21.9241C9.11259 19.2371 10.7293 16.6252 12.667 14.56C12.7637 14.4555 12.8567 14.3501 12.9491 14.2421C13.1645 13.9949 13.396 13.764 13.6282 13.5328C13.7029 13.4584 13.7773 13.3837 13.8518 13.3089C14.1143 13.0462 14.3816 12.7922 14.6649 12.5517C14.7182 12.505 14.7714 12.4583 14.8245 12.4115C15.2643 12.0279 15.7213 11.671 16.1891 11.3225C16.2244 11.296 16.2596 11.2696 16.2959 11.2423C16.8782 10.8068 17.482 10.4158 18.1068 10.044C18.1483 10.0193 18.1898 9.99449 18.2325 9.96897C19.5323 9.1976 20.899 8.52979 22.3423 8.07265C22.4557 8.03669 22.5658 7.99785 22.6765 7.95434C23.8711 7.5029 25.1547 7.22453 26.4164 7.0447C26.548 7.02513 26.6796 7.00555 26.8112 6.98596C27.8289 6.84446 28.8369 6.77722 29.8644 6.77734Z" fill="white"/>
<path d="M7.04359 33.3504C7.67882 33.3481 8.31405 33.3464 8.94929 33.3453C9.24436 33.3448 9.53944 33.3441 9.83452 33.343C10.1202 33.3419 10.4058 33.3414 10.6915 33.3411C10.7996 33.3409 10.9076 33.3406 11.0157 33.34C11.73 33.3366 12.4305 33.3718 13.1406 33.4488C13.2289 33.4577 13.2289 33.4577 13.319 33.4668C14.0683 33.544 14.7819 33.7338 15.5038 33.9405C15.5492 33.9534 15.5945 33.9663 15.6412 33.9797C15.7723 34.0173 15.9033 34.0556 16.0341 34.0941C16.073 34.1054 16.1118 34.1167 16.1518 34.1283C16.3847 34.1981 16.6041 34.2836 16.8247 34.386C16.9291 34.4333 17.0346 34.4747 17.1418 34.5151C18.7498 35.1563 20.2632 36.1277 21.5225 37.3144C21.6294 37.415 21.7382 37.5114 21.8498 37.6067C22.221 37.9293 22.5592 38.2852 22.8762 38.6608C22.9118 38.7018 22.9474 38.7429 22.9841 38.7852C24.0911 40.0808 24.971 41.594 25.5805 43.1844C25.5954 43.2232 25.6103 43.262 25.6256 43.3019C25.8721 43.955 26.0568 44.6203 26.2197 45.2986C26.2349 45.3598 26.25 45.421 26.2656 45.484C26.3763 45.9764 26.4179 46.478 26.4655 46.9797C26.4712 47.0397 26.477 47.0998 26.4829 47.1617C26.4879 47.216 26.4928 47.2703 26.498 47.3262C26.5107 47.4662 26.5107 47.4662 26.5639 47.6096C26.5683 47.682 26.5699 47.7546 26.5698 47.8271C26.5699 47.8938 26.5699 47.8938 26.57 47.9619C26.5699 48.0105 26.5697 48.0592 26.5695 48.1093C26.5695 48.1607 26.5695 48.212 26.5695 48.2649C26.5695 48.4349 26.5691 48.6049 26.5687 48.7749C26.5686 48.8926 26.5686 49.0104 26.5685 49.1281C26.5683 49.4383 26.5678 49.7485 26.5673 50.0586C26.5668 50.375 26.5666 50.6914 26.5663 51.0078C26.5658 51.6288 26.565 52.2498 26.5639 52.8708C26.4656 52.8729 26.3672 52.8728 26.2689 52.8708C26.2527 52.8545 26.2365 52.8383 26.2197 52.8216C26.1259 52.8051 26.0317 52.791 25.9374 52.778C25.5995 52.7281 25.2682 52.6604 24.9352 52.585C24.8481 52.5653 24.8481 52.5653 24.7593 52.5453C23.6476 52.2919 22.555 51.9794 21.4995 51.5432C21.4541 51.5248 21.4088 51.5064 21.3621 51.4874C19.1572 50.5886 17.0771 49.3964 15.2549 47.8555C15.2064 47.8155 15.1579 47.7755 15.108 47.7343C14.4857 47.2189 13.9064 46.6583 13.3342 46.0884C13.2763 46.0309 13.2763 46.0309 13.2172 45.9721C12.9849 45.7392 12.7642 45.4996 12.5506 45.2495C12.5074 45.1999 12.4643 45.1502 12.4211 45.1006C12.0536 44.6714 11.7083 44.2273 11.3705 43.7744C11.3437 43.7386 11.317 43.7027 11.2894 43.6658C10.6664 42.8281 10.1239 41.9488 9.61546 41.0375C9.56055 40.9392 9.505 40.8414 9.44925 40.7435C9.21903 40.3285 9.02356 39.8985 8.82906 39.4659C8.81547 39.4357 8.80187 39.4056 8.78786 39.3745C8.60213 38.9613 8.43124 38.5443 8.27283 38.1199C8.25635 38.0761 8.23987 38.0323 8.22289 37.9871C8.17228 37.8517 8.12407 37.7155 8.07615 37.579C8.0581 37.5282 8.0581 37.5282 8.03968 37.4763C7.71275 36.5492 7.44426 35.5978 7.27004 34.6296C7.24231 34.4789 7.24231 34.4789 7.1927 34.3259C7.13844 34.1242 7.10972 33.9293 7.08661 33.7223C7.08237 33.6863 7.07812 33.6503 7.07375 33.6133C7.06344 33.5257 7.05348 33.4381 7.04359 33.3504Z" fill="white"/>
<path d="M49.2011 33.3456C49.3078 33.3457 49.4144 33.3458 49.521 33.3459C49.7981 33.346 50.0752 33.3465 50.3523 33.3471C50.6365 33.3476 50.9206 33.3478 51.2048 33.348C51.7598 33.3486 52.3147 33.3494 52.8697 33.3504C52.8467 33.5157 52.8235 33.6808 52.8003 33.846C52.7939 33.8924 52.7874 33.9389 52.7808 33.9868C52.7312 34.3377 52.6611 34.6785 52.5746 35.0222C52.5591 35.089 52.5438 35.1557 52.5285 35.2225C52.5163 35.2759 52.5163 35.2759 52.5038 35.3302C52.4884 35.3978 52.473 35.4654 52.4577 35.533C52.3234 36.1105 52.144 36.6767 51.9631 37.241C51.9449 37.2986 51.9268 37.3562 51.9081 37.4156C51.788 37.7905 51.6502 38.1525 51.4929 38.5133C51.4613 38.5864 51.4613 38.5864 51.4291 38.661C51.2725 39.0226 51.1124 39.3826 50.952 39.7425C50.9346 39.7819 50.9172 39.8213 50.8992 39.8619C50.207 41.4192 49.2572 42.8846 48.1985 44.2169C48.1736 44.2483 48.1487 44.2797 48.123 44.312C47.8216 44.6902 47.516 45.0614 47.1863 45.4154C47.0936 45.5163 47.0041 45.6185 46.9149 45.7226C46.706 45.9621 46.4821 46.1866 46.2569 46.4108C46.1858 46.4817 46.1149 46.5528 46.044 46.624C45.7871 46.8811 45.5251 47.1283 45.2484 47.3638C45.1945 47.411 45.1407 47.4583 45.087 47.5057C44.6923 47.8505 44.2832 48.1702 43.8605 48.4798C43.7865 48.5341 43.713 48.5891 43.6396 48.6441C42.5829 49.43 41.4481 50.109 40.2767 50.7089C40.185 50.7559 40.0936 50.8035 40.0022 50.8512C39.6825 51.0152 39.3629 51.1591 39.0248 51.2808C38.8805 51.3371 38.7427 51.3989 38.6026 51.4644C38.3203 51.594 38.0331 51.6939 37.7377 51.789C37.6333 51.8232 37.5289 51.8573 37.4244 51.8914C37.3496 51.9157 37.3496 51.9157 37.2733 51.9405C37.1578 51.9784 37.0426 52.0172 36.9278 52.057C35.8398 52.4323 34.5079 52.8708 33.3493 52.8708C33.3482 52.1874 33.3473 51.5039 33.3468 50.8205C33.3465 50.5032 33.3462 50.1859 33.3456 49.8686C33.3451 49.5625 33.3448 49.2564 33.3447 48.9504C33.3446 48.8334 33.3444 48.7165 33.3441 48.5996C33.3438 48.4362 33.3437 48.2727 33.3437 48.1093C33.3436 48.0607 33.3434 48.012 33.3432 47.9619C33.3433 47.9174 33.3433 47.8729 33.3434 47.8271C33.3434 47.7884 33.3433 47.7498 33.3433 47.7099C33.3493 47.6096 33.3493 47.6096 33.3985 47.4621C33.4097 47.3668 33.4189 47.2712 33.4269 47.1756C33.673 44.4355 34.6514 41.8065 36.2995 39.595C36.3212 39.5656 36.3429 39.5362 36.3652 39.5059C36.6163 39.1663 36.8829 38.8457 37.1705 38.5363C37.2641 38.4353 37.3538 38.3326 37.4427 38.2275C37.8326 37.7805 38.2591 37.3622 38.7247 36.9949C38.8611 36.8869 38.992 36.7738 39.1237 36.6602C41.1576 34.9713 43.7056 33.9203 46.3024 33.5041C46.3641 33.4941 46.4257 33.4841 46.4893 33.4738C47.3876 33.3392 48.2948 33.3433 49.2011 33.3456Z" fill="white"/>
<path d="M32.4889 26.1932C32.7405 26.3833 32.9721 26.5952 33.2018 26.8109C33.2315 26.8363 33.2613 26.8617 33.2919 26.8879C33.9807 27.5058 34.4235 28.5857 34.4891 29.4898C34.5556 30.8027 34.1793 32.009 33.3002 33.0063C32.6676 33.703 31.8506 34.1556 30.94 34.383C30.9077 34.3916 30.8753 34.4002 30.842 34.4091C29.8238 34.6626 28.6686 34.4664 27.7688 33.9403C26.6633 33.2685 25.8806 32.2763 25.5682 31.0149C25.5389 30.8921 25.5105 30.7692 25.4822 30.6461C25.4735 30.6148 25.4648 30.5835 25.4559 30.5513C25.2328 29.558 25.5567 28.4293 26.0845 27.5914C26.2821 27.2881 26.5086 27.0217 26.7606 26.7617C26.7865 26.7322 26.8123 26.7028 26.839 26.6724C27.2776 26.1901 27.872 25.8832 28.4815 25.68C28.5503 25.6526 28.6189 25.625 28.6874 25.597C29.9254 25.1428 31.419 25.4733 32.4889 26.1932Z" fill="white"/>
<path d="M8.66619 8.81482C8.69864 8.84727 8.73109 8.87972 8.76453 8.91316C8.47246 9.20523 8.18039 9.49729 7.87947 9.79821C7.84702 9.78199 7.81457 9.76576 7.78114 9.74904C7.80096 9.72948 7.82078 9.70991 7.84121 9.68975C7.93195 9.60004 8.02249 9.51013 8.11303 9.42022C8.14421 9.38945 8.1754 9.35868 8.20753 9.32697C8.3718 9.16355 8.52597 9.00001 8.66619 8.81482Z" fill="#767676"/>
</svg>
