<svg width="60" height="60" viewBox="0 0 60 60" fill="none" xmlns="http://www.w3.org/2000/svg">
<path d="M30.1363 10.001C30.2053 10.0008 30.2743 10.0005 30.3433 10.0002C31.098 9.99762 31.8532 10.0167 32.5996 10.138C32.655 10.1467 32.655 10.1467 32.7115 10.1555C32.9641 10.1953 33.2158 10.2383 33.4665 10.2889C33.5591 10.3069 33.652 10.3234 33.7448 10.34C34.4616 10.4717 35.1579 10.6676 35.8571 10.8709C35.9356 10.8936 36.0141 10.9161 36.0926 10.9386C36.3309 11.0072 36.566 11.0781 36.7954 11.1726C36.8449 11.1925 36.8944 11.2123 36.9439 11.2321C36.9676 11.2415 36.9913 11.251 37.0158 11.2607C37.1162 11.2998 37.218 11.3344 37.3199 11.3693C37.514 11.4381 37.699 11.52 37.8844 11.6092C38.0008 11.665 38.118 11.7186 38.2355 11.7718C39.2634 12.2382 40.2526 12.7749 41.1817 13.4181C41.2041 13.4335 41.2265 13.449 41.2495 13.4649C41.7728 13.8275 42.2715 14.218 42.763 14.6225C42.8206 14.6695 42.8785 14.7162 42.9369 14.7623C43.1844 14.9593 43.4118 15.175 43.641 15.3928C43.7402 15.487 43.8407 15.5793 43.9434 15.6696C44.1267 15.8309 44.2885 16.0066 44.451 16.1885C44.5138 16.2573 44.5777 16.3235 44.6441 16.3887C44.7644 16.5074 44.8743 16.6333 44.9842 16.7616C45.0135 16.7954 45.0429 16.8292 45.0723 16.863C45.3126 17.1403 45.544 17.4239 45.7709 17.7122C45.8112 17.763 45.8112 17.763 45.8523 17.8149C46.6369 18.8174 47.299 19.919 47.8688 21.0557C47.8874 21.0928 47.906 21.1299 47.9252 21.1681C48.2439 21.8057 48.5368 22.4518 48.7568 23.1309C48.785 23.2144 48.8164 23.2955 48.8502 23.3769C49.3275 24.5508 49.5939 25.8521 49.7587 27.1041C49.7696 27.1822 49.7822 27.2598 49.7955 27.3375C50.0674 28.9606 50.0608 30.7901 49.8196 32.4143C49.8035 32.5238 49.7889 32.6334 49.7746 32.7431C49.708 33.2459 49.616 33.7374 49.4988 34.2309C49.477 34.323 49.456 34.4153 49.4352 34.5077C49.3093 35.0615 49.1611 35.6142 48.9779 36.1519C48.9428 36.2557 48.9089 36.3598 48.875 36.464C48.8541 36.5278 48.8331 36.5916 48.8121 36.6553C48.7979 36.6985 48.7838 36.7418 48.7698 36.785C48.6915 37.026 48.6082 37.2608 48.4997 37.4903C48.4572 37.5802 48.4173 37.671 48.3778 37.7624C48.0488 38.5206 47.696 39.2558 47.2788 39.9696C47.2421 40.033 47.2054 40.0964 47.1687 40.1598C46.9655 40.5089 46.7553 40.8508 46.5248 41.1825C46.5093 41.2049 46.4938 41.2273 46.4779 41.2504C46.2616 41.5625 46.0377 41.867 45.8037 42.1659C45.7855 42.1897 45.7673 42.2135 45.7485 42.2381C45.4526 42.6247 45.1409 42.9981 44.8075 43.3527C44.7368 43.4284 44.6684 43.505 44.6011 43.5836C44.4945 43.7072 44.379 43.8206 44.2628 43.9351C44.1943 44.0023 44.1943 44.0023 44.1299 44.0876C44.0545 44.18 43.9692 44.2515 43.8786 44.3287C43.7957 44.4024 43.7181 44.4799 43.6402 44.5588C43.5033 44.697 43.3622 44.8262 43.2141 44.9522C43.1808 44.981 43.1475 45.0098 43.1142 45.0387C42.4985 45.5718 41.8593 46.0729 41.1817 46.5256C41.1586 46.5411 41.1354 46.5565 41.1116 46.5725C40.1242 47.2296 39.0888 47.7902 38.0098 48.2802C37.9414 48.3114 37.8731 48.3427 37.8049 48.3744C37.628 48.4563 37.4515 48.5289 37.2666 48.5907C37.1047 48.6462 36.9461 48.7042 36.7893 48.773C36.6153 48.8475 36.4387 48.902 36.2567 48.9525C36.1062 48.9946 35.959 49.0428 35.8112 49.0937C35.5153 49.1941 35.2138 49.2698 34.9106 49.3446C34.8819 49.3518 34.8533 49.3589 34.8238 49.3662C34.3734 49.478 33.9226 49.5776 33.4652 49.6574C33.3885 49.671 33.3121 49.6855 33.2357 49.7005C32.8485 49.7754 32.4569 49.8169 32.0646 49.8561C31.9738 49.8654 31.8832 49.8755 31.7926 49.8864C31.292 49.9433 30.792 49.9451 30.2889 49.9431C30.2181 49.9429 30.1472 49.9427 30.0764 49.9426C29.0044 49.9401 27.95 49.906 26.8898 49.738C26.8576 49.7329 26.8253 49.7278 26.7921 49.7226C24.2181 49.3057 21.7323 48.3897 19.5143 47.0173C19.4854 46.9996 19.4565 46.9819 19.4268 46.9637C18.8653 46.6199 18.3278 46.2433 17.8098 45.8372C17.7573 45.7974 17.7047 45.7576 17.6521 45.7179C17.3118 45.4597 16.9908 45.1787 16.6747 44.8916C16.6207 44.8426 16.5665 44.7939 16.512 44.7454C16.3667 44.6157 16.2255 44.4841 16.0892 44.345C16.0365 44.2916 16.0365 44.2916 15.9577 44.2331C15.8883 44.1758 15.8372 44.1229 15.7795 44.0548C15.6668 43.9224 15.5449 43.8016 15.421 43.6799C15.2575 43.5187 15.1075 43.3534 14.9651 43.173C14.8561 43.0392 14.7379 42.9147 14.6195 42.7893C14.5348 42.6966 14.4605 42.5976 14.386 42.4965C14.3357 42.4289 14.284 42.3626 14.2317 42.2965C12.8044 40.4917 11.6738 38.4068 10.9827 36.2091C10.9599 36.1377 10.936 36.0667 10.912 35.9956C10.8636 35.8509 10.8202 35.7052 10.7789 35.5583C10.7679 35.5193 10.7679 35.5193 10.7567 35.4794C10.7331 35.3953 10.7097 35.3111 10.6863 35.2268C10.6783 35.1979 10.6703 35.169 10.6621 35.1392C10.5256 34.6439 10.4121 34.1488 10.321 33.6431C10.3056 33.558 10.2896 33.4731 10.2731 33.3882C10.2054 33.0328 10.1592 32.6744 10.1193 32.3149C10.1107 32.2381 10.1018 32.1613 10.0927 32.0846C10.014 31.4111 9.99932 30.7418 10 30.064C10.0001 30.0026 10.0001 30.0026 10.0001 29.94C10.0014 29.2338 10.0119 28.5275 10.0861 27.8247C10.0904 27.783 10.0946 27.7412 10.0991 27.6981C10.1261 27.4454 10.1614 27.1984 10.2135 26.9496C10.2369 26.829 10.2539 26.7091 10.2695 26.5873C10.3224 26.1798 10.4116 25.7843 10.5085 25.3853C10.5304 25.2939 10.5512 25.2023 10.5715 25.1106C10.7192 24.4493 10.8967 23.7293 11.1842 23.1147C11.2346 23.0061 11.2752 22.8964 11.3131 22.7828C11.6976 21.639 12.2922 20.5386 12.9256 19.5151C12.9433 19.4862 12.961 19.4573 12.9792 19.4275C13.3145 18.8799 13.6806 18.3517 14.0729 17.8433C14.0929 17.8172 14.0929 17.8172 14.1134 17.7905C14.4205 17.3899 14.7506 17.0107 15.0897 16.637C15.1512 16.5687 15.2114 16.4994 15.2714 16.4297C15.3701 16.3162 15.4751 16.211 15.5823 16.1056C15.6425 16.0444 15.6977 15.9812 15.7529 15.9155C15.8818 15.7652 16.0287 15.6354 16.1754 15.503C16.2498 15.4352 16.3217 15.3666 16.3921 15.2947C16.5093 15.1758 16.6341 15.0673 16.7608 14.9587C16.7947 14.9294 16.8285 14.9 16.8623 14.8706C17.1395 14.6303 17.4219 14.3974 17.7115 14.172C17.7468 14.1444 17.7468 14.1444 17.7828 14.1163C18.5083 13.5537 19.2782 13.0593 20.0716 12.5986C20.1092 12.5766 20.1092 12.5766 20.1475 12.5541C21.1153 11.9907 22.1494 11.5002 23.213 11.1475C23.2959 11.1194 23.3783 11.0901 23.4607 11.0606C24.1876 10.8014 24.9248 10.6068 25.6769 10.4351C25.71 10.4275 25.7431 10.42 25.7772 10.4122C27.2209 10.0886 28.6622 10.0047 30.1363 10.001Z" fill="#767676"/>
<path d="M29.9096 14.5182C29.9679 14.5182 29.9679 14.5182 30.0274 14.5181C31.0927 14.5191 32.1417 14.6382 33.1835 14.8604C33.2293 14.8697 33.2293 14.8697 33.2761 14.8793C33.7475 14.9756 34.2037 15.1102 34.6618 15.2564C34.7456 15.2829 34.8295 15.3087 34.9137 15.334C34.9367 15.341 34.9598 15.348 34.9836 15.3552C35.0418 15.3728 35.1 15.3903 35.1582 15.4078C35.6143 15.5656 36.0538 15.7786 36.4942 15.9749C36.5337 15.9923 36.5337 15.9923 36.5739 16.0101C37.612 16.4716 38.589 17.1048 39.4772 17.8106C39.4981 17.8272 39.519 17.8438 39.5406 17.8609C39.7927 18.0618 40.0402 18.2656 40.2762 18.4854C40.3435 18.5472 40.4116 18.6069 40.481 18.6663C40.6407 18.8056 40.7903 18.9548 40.9398 19.105C40.987 19.1524 41.0345 19.1997 41.0819 19.2469C41.236 19.4009 41.3861 19.5567 41.5278 19.7222C41.5889 19.7935 41.6527 19.8621 41.7165 19.931C41.8722 20.1038 42.0137 20.2862 42.1533 20.472C42.2001 20.5342 42.2473 20.596 42.2946 20.6578C42.8139 21.3394 43.2722 22.0686 43.673 22.8258C43.688 22.854 43.703 22.8821 43.7184 22.9111C43.9345 23.3202 44.1239 23.7374 44.2979 24.1657C44.307 24.1881 44.3161 24.2104 44.3255 24.2334C44.4168 24.4586 44.5034 24.6833 44.5696 24.9173C44.597 25.01 44.6314 25.0992 44.6661 25.1893C44.7041 25.2918 44.7347 25.3965 44.765 25.5015C44.7718 25.525 44.7786 25.5485 44.7856 25.5727C44.8083 25.6514 44.8307 25.7301 44.8531 25.8088C44.8613 25.8377 44.8696 25.8666 44.8781 25.8964C45.0121 26.3667 45.1226 26.8305 45.1809 27.3167C45.1215 27.3121 45.062 27.3073 45.0026 27.3023C44.9696 27.2997 44.9365 27.297 44.9024 27.2943C44.8203 27.2839 44.8203 27.2839 44.7875 27.2511C44.7014 27.2388 44.6158 27.2279 44.5294 27.2183C44.2758 27.1898 44.2758 27.1898 44.1647 27.1528C44.0869 27.143 44.0092 27.1342 43.9312 27.1261C43.616 27.0913 43.304 27.0401 42.9912 26.989C42.8144 26.9602 42.6374 26.9331 42.4602 26.9069C42.2147 26.8706 41.9696 26.8318 41.7247 26.7922C41.4812 26.7528 41.2376 26.7153 40.9933 26.6816C40.6777 26.6376 40.3633 26.5872 40.0488 26.5361C40.0101 26.5298 40.0101 26.5298 39.9706 26.5234C39.6798 26.4761 39.3891 26.428 39.0987 26.3786C38.6444 26.3015 38.1913 26.2261 37.7334 26.173C37.4319 26.1372 37.1334 26.0864 36.8342 26.0354C36.2315 25.933 35.6272 25.8408 35.0192 25.776C34.9848 25.7724 34.9504 25.7687 34.915 25.7649C34.8579 25.7588 34.8579 25.7588 34.7997 25.7526C34.7401 25.7462 34.7401 25.7462 34.6793 25.7397C34.6013 25.7314 34.5234 25.7232 34.4454 25.7151C34.2523 25.6947 34.0599 25.6722 33.8675 25.6462C33.4683 25.5948 33.0666 25.5686 32.6652 25.5425C32.6319 25.5403 32.6319 25.5403 32.5979 25.5381C31.7296 25.4817 30.8623 25.4683 29.9924 25.4687C29.8968 25.4687 29.8012 25.4686 29.7056 25.4686C28.896 25.4683 28.0909 25.4918 27.2831 25.5466C27.2389 25.5495 27.1946 25.5525 27.1503 25.5554C26.7626 25.5814 26.3774 25.6112 25.9924 25.6637C25.8693 25.6782 25.7476 25.6847 25.6237 25.69C25.0623 25.716 24.5004 25.8118 23.9463 25.9024C23.7137 25.9402 23.4805 25.9727 23.2471 26.0055C22.9828 26.0428 22.7194 26.0817 22.4568 26.1297C21.841 26.2418 21.2217 26.3339 20.6023 26.4232C20.2104 26.4799 19.82 26.5438 19.4296 26.6102C19.0502 26.6747 18.6705 26.7307 18.289 26.7814C18.0492 26.8135 17.8132 26.8532 17.5759 26.9003C17.4276 26.9273 17.2791 26.947 17.1296 26.9663C16.7989 27.0092 16.4708 27.064 16.1421 27.12C15.6831 27.1982 15.2243 27.2656 14.7613 27.3167C14.8527 26.5185 15.0503 25.6474 15.3672 24.9086C15.4086 24.812 15.444 24.7157 15.4771 24.6161C16.0751 22.8247 17.1529 21.0835 18.4447 19.7067C18.5091 19.637 18.5711 19.5668 18.6328 19.4947C18.7763 19.3299 18.9306 19.176 19.0854 19.0219C19.1352 18.9723 19.1849 18.9225 19.2345 18.8726C19.4096 18.6974 19.5877 18.5282 19.7766 18.3678C19.8121 18.3367 19.8476 18.3055 19.883 18.2743C20.1762 18.0186 20.4808 17.7807 20.7928 17.5483C20.8163 17.5307 20.8397 17.5131 20.864 17.4949C21.2522 17.2045 21.6547 16.9439 22.0712 16.696C22.0988 16.6795 22.1265 16.663 22.155 16.646C23.0215 16.1317 23.9327 15.6865 24.8948 15.3818C24.9705 15.3578 25.0439 15.3319 25.1176 15.3029C25.9141 15.0019 26.7698 14.8164 27.6109 14.6965C27.6987 14.6834 27.7864 14.6704 27.8741 14.6573C28.5526 14.563 29.2246 14.5182 29.9096 14.5182Z" fill="white"/>
<path d="M14.6957 32.2336C15.1192 32.2321 15.5427 32.2309 15.9662 32.2302C16.1629 32.2299 16.3596 32.2294 16.5563 32.2287C16.7468 32.2279 16.9372 32.2276 17.1277 32.2274C17.1997 32.2273 17.2718 32.227 17.3438 32.2267C17.82 32.2244 18.287 32.2479 18.7604 32.2992C18.8193 32.3051 18.8193 32.3051 18.8794 32.3112C19.3788 32.3626 19.8546 32.4892 20.3359 32.627C20.3661 32.6356 20.3963 32.6442 20.4275 32.6531C20.5149 32.6782 20.6022 32.7037 20.6894 32.7294C20.7153 32.7369 20.7412 32.7444 20.7679 32.7522C20.9232 32.7988 21.0694 32.8557 21.2165 32.924C21.2861 32.9555 21.3564 32.9831 21.4279 33.0101C22.4999 33.4376 23.5088 34.0851 24.3483 34.8762C24.4196 34.9433 24.4921 35.0076 24.5665 35.0711C24.814 35.2862 25.0395 35.5235 25.2508 35.7738C25.2745 35.8012 25.2983 35.8286 25.3228 35.8568C26.0607 36.7205 26.6473 37.7293 27.0537 38.7896C27.0636 38.8154 27.0735 38.8413 27.0837 38.8679C27.2481 39.3033 27.3712 39.7469 27.4798 40.1991C27.4899 40.2399 27.5 40.2806 27.5104 40.3227C27.5842 40.651 27.6119 40.9853 27.6437 41.3198C27.6475 41.3598 27.6513 41.3999 27.6552 41.4411C27.6586 41.4773 27.6619 41.5135 27.6653 41.5508C27.6738 41.6441 27.6738 41.6441 27.7093 41.7397C27.7122 41.788 27.7133 41.8364 27.7132 41.8847C27.7133 41.9292 27.7133 41.9292 27.7134 41.9746C27.7132 42.007 27.7131 42.0394 27.713 42.0729C27.713 42.1071 27.713 42.1413 27.713 42.1766C27.713 42.2899 27.7127 42.4033 27.7125 42.5166C27.7124 42.5951 27.7124 42.6736 27.7123 42.7521C27.7122 42.9589 27.7119 43.1656 27.7115 43.3724C27.7112 43.5833 27.711 43.7943 27.7109 44.0052C27.7105 44.4192 27.71 44.8332 27.7093 45.2472C27.6437 45.2486 27.5781 45.2485 27.5126 45.2472C27.5018 45.2364 27.491 45.2255 27.4798 45.2144C27.4173 45.2034 27.3545 45.194 27.2916 45.1853C27.0663 45.1521 26.8455 45.1069 26.6235 45.0566C26.5654 45.0435 26.5654 45.0435 26.5062 45.0302C25.765 44.8613 25.0367 44.6529 24.333 44.3621C24.3028 44.3498 24.2725 44.3376 24.2414 44.3249C22.7714 43.7257 21.3847 42.9309 20.1699 41.9036C20.1376 41.877 20.1053 41.8503 20.072 41.8228C19.6571 41.4792 19.271 41.1055 18.8895 40.7256C18.8509 40.6872 18.8509 40.6872 18.8115 40.6481C18.6566 40.4928 18.5094 40.3331 18.3671 40.1663C18.3383 40.1332 18.3095 40.1001 18.2808 40.0671C18.0357 39.7809 17.8055 39.4849 17.5803 39.1829C17.5625 39.159 17.5446 39.1351 17.5263 39.1105C17.1109 38.552 16.7493 37.9658 16.4103 37.3583C16.3737 37.2928 16.3367 37.2276 16.2995 37.1624C16.146 36.8856 16.0157 36.599 15.886 36.3106C15.877 36.2905 15.8679 36.2704 15.8586 36.2497C15.7348 35.9742 15.6208 35.6962 15.5152 35.4132C15.5042 35.384 15.4932 35.3548 15.4819 35.3248C15.4482 35.2344 15.4161 35.1436 15.3841 35.0527C15.3721 35.0188 15.3721 35.0188 15.3598 34.9842C15.1418 34.3661 14.9628 33.7318 14.8467 33.0864C14.8282 32.9859 14.8282 32.9859 14.7951 32.8839C14.759 32.7494 14.7398 32.6195 14.7244 32.4815C14.7216 32.4575 14.7187 32.4336 14.7158 32.4088C14.709 32.3505 14.7023 32.292 14.6957 32.2336Z" fill="white"/>
<path d="M42.8008 32.2304C42.8718 32.2305 42.9429 32.2305 43.014 32.2306C43.1987 32.2307 43.3835 32.231 43.5682 32.2314C43.7576 32.2317 43.9471 32.2319 44.1365 32.232C44.5065 32.2324 44.8765 32.2329 45.2464 32.2336C45.2312 32.3438 45.2157 32.4539 45.2002 32.564C45.1959 32.595 45.1916 32.6259 45.1872 32.6579C45.1542 32.8918 45.1074 33.119 45.0498 33.3481C45.0394 33.3926 45.0292 33.4371 45.019 33.4817C45.0109 33.5172 45.0109 33.5172 45.0026 33.5535C44.9922 33.5985 44.982 33.6436 44.9718 33.6886C44.8823 34.0737 44.7627 34.4511 44.6421 34.8273C44.63 34.8657 44.6178 34.9041 44.6054 34.9437C44.5253 35.1937 44.4335 35.435 44.3286 35.6755C44.3076 35.7243 44.3076 35.7243 44.2861 35.774C44.1816 36.015 44.0749 36.2551 43.968 36.495C43.9564 36.5213 43.9448 36.5475 43.9328 36.5746C43.4713 37.6128 42.8381 38.5897 42.1324 39.4779C42.1157 39.4989 42.0991 39.5198 42.082 39.5413C41.8811 39.7935 41.6773 40.0409 41.4576 40.2769C41.3957 40.3442 41.3361 40.4123 41.2766 40.4817C41.1373 40.6414 40.9881 40.7911 40.838 40.9405C40.7905 40.9878 40.7433 41.0352 40.696 41.0827C40.5248 41.2541 40.3501 41.4188 40.1656 41.5758C40.1297 41.6073 40.0938 41.6389 40.058 41.6705C39.7949 41.9003 39.5221 42.1135 39.2403 42.3199C39.191 42.3561 39.142 42.3927 39.0931 42.4294C38.3886 42.9533 37.6321 43.406 36.8511 43.8059C36.79 43.8373 36.7291 43.869 36.6681 43.9008C36.455 44.0101 36.242 44.1061 36.0165 44.1872C35.9204 44.2247 35.8285 44.2659 35.7351 44.3096C35.5469 44.396 35.3554 44.4626 35.1585 44.526C35.0889 44.5488 35.0192 44.5715 34.9496 44.5943C34.8998 44.6105 34.8998 44.6105 34.8489 44.627C34.7718 44.6522 34.6951 44.6781 34.6185 44.7046C33.8932 44.9548 33.0053 45.2472 32.2329 45.2472C32.2321 44.7916 32.2315 44.3359 32.2312 43.8803C32.231 43.6688 32.2308 43.4572 32.2304 43.2457C32.2301 43.0417 32.2299 42.8376 32.2298 42.6336C32.2297 42.5556 32.2296 42.4777 32.2294 42.3997C32.2292 42.2908 32.2291 42.1818 32.2292 42.0729C32.229 42.0404 32.2289 42.008 32.2288 41.9746C32.2288 41.9449 32.2289 41.9153 32.2289 41.8847C32.2289 41.8589 32.2289 41.8332 32.2288 41.8066C32.2329 41.7397 32.2329 41.7397 32.2657 41.6414C32.2731 41.5778 32.2792 41.5141 32.2846 41.4504C32.4487 39.6236 33.1009 37.871 34.1997 36.3966C34.2141 36.377 34.2286 36.3575 34.2435 36.3373C34.4109 36.1109 34.5886 35.8971 34.7804 35.6909C34.8427 35.6235 34.9026 35.555 34.9618 35.485C35.2217 35.187 35.5061 34.9081 35.8165 34.6633C35.9074 34.5912 35.9947 34.5159 36.0825 34.4401C37.4384 33.3142 39.137 32.6135 40.8683 32.3361C40.9094 32.3294 40.9505 32.3227 40.9928 32.3158C41.5917 32.2261 42.1965 32.2289 42.8008 32.2304Z" fill="white"/>
<path d="M31.6592 27.4621C31.827 27.5889 31.9814 27.7301 32.1345 27.8739C32.1544 27.8909 32.1742 27.9078 32.1946 27.9253C32.6538 28.3372 32.949 29.0571 32.9927 29.6598C33.0371 30.5351 32.7862 31.3393 32.2001 32.0042C31.7784 32.4686 31.2337 32.7704 30.6267 32.922C30.6051 32.9277 30.5836 32.9335 30.5614 32.9394C29.8826 33.1084 29.1124 32.9776 28.5125 32.6268C27.7755 32.179 27.2537 31.5175 27.0455 30.6766C27.0259 30.5947 27.007 30.5128 26.9881 30.4307C26.9823 30.4099 26.9766 30.389 26.9706 30.3675C26.8219 29.7053 27.0378 28.9529 27.3897 28.3943C27.5214 28.1921 27.6724 28.0145 27.8404 27.8411C27.8576 27.8215 27.8749 27.8018 27.8926 27.7816C28.1851 27.4601 28.5813 27.2554 28.9877 27.12C29.0335 27.1017 29.0793 27.0833 29.125 27.0647C29.9503 26.7619 30.946 26.9822 31.6592 27.4621Z" fill="white"/>
<path d="M15.7775 15.8766C15.7991 15.8982 15.8207 15.9198 15.843 15.9421C15.6483 16.1368 15.4536 16.3315 15.253 16.5322C15.2313 16.5213 15.2097 16.5105 15.1874 16.4994C15.2006 16.4863 15.2139 16.4733 15.2275 16.4598C15.288 16.4 15.3483 16.3401 15.4087 16.2802C15.4295 16.2596 15.4503 16.2391 15.4717 16.218C15.5812 16.109 15.684 16 15.7775 15.8766Z" fill="#767676"/>
</svg>
